<mxfile host="65bd71144e">
    <diagram id="Uvr1qja6_XJfDVulPIip" name="Page-1">
        <mxGraphModel dx="1070" dy="733" grid="0" gridSize="10" guides="1" tooltips="1" connect="1" arrows="1" fold="1" page="1" pageScale="1" pageWidth="850" pageHeight="1100" background="#ffffff" math="0" shadow="0">
            <root>
                <mxCell id="0"/>
                <mxCell id="1" parent="0"/>
                <mxCell id="2" value="" style="rounded=0;whiteSpace=wrap;html=1;fillColor=#FFFFFF;strokeColor=#050505;" vertex="1" parent="1">
                    <mxGeometry x="71" y="367" width="708" height="69" as="geometry"/>
                </mxCell>
                <mxCell id="4" value="&lt;font color=&quot;#0f0f0f&quot;&gt;1&lt;/font&gt;" style="rounded=0;whiteSpace=wrap;html=1;strokeColor=#050505;fillColor=#FFFFFF;" vertex="1" parent="1">
                    <mxGeometry x="124" y="229" width="37" height="35" as="geometry"/>
                </mxCell>
                <mxCell id="24" value="&lt;font color=&quot;#0f0f0f&quot;&gt;2&lt;/font&gt;" style="rounded=0;whiteSpace=wrap;html=1;strokeColor=#050505;fillColor=#FFFFFF;" vertex="1" parent="1">
                    <mxGeometry x="186" y="229" width="37" height="35" as="geometry"/>
                </mxCell>
                <mxCell id="25" value="&lt;font color=&quot;#0f0f0f&quot;&gt;3&lt;/font&gt;" style="rounded=0;whiteSpace=wrap;html=1;strokeColor=#050505;fillColor=#FFFFFF;" vertex="1" parent="1">
                    <mxGeometry x="248" y="229" width="37" height="35" as="geometry"/>
                </mxCell>
                <mxCell id="26" value="&lt;font color=&quot;#0f0f0f&quot;&gt;4&lt;/font&gt;" style="rounded=0;whiteSpace=wrap;html=1;strokeColor=#050505;fillColor=#FFFFFF;" vertex="1" parent="1">
                    <mxGeometry x="310" y="229" width="37" height="35" as="geometry"/>
                </mxCell>
                <mxCell id="27" value="&lt;font color=&quot;#0f0f0f&quot;&gt;5&lt;/font&gt;" style="rounded=0;whiteSpace=wrap;html=1;strokeColor=#050505;fillColor=#FFFFFF;" vertex="1" parent="1">
                    <mxGeometry x="372" y="229" width="37" height="35" as="geometry"/>
                </mxCell>
                <mxCell id="28" value="&lt;font color=&quot;#0f0f0f&quot;&gt;6&lt;/font&gt;" style="rounded=0;whiteSpace=wrap;html=1;strokeColor=#050505;fillColor=#FFFFFF;" vertex="1" parent="1">
                    <mxGeometry x="434" y="229" width="37" height="35" as="geometry"/>
                </mxCell>
                <mxCell id="29" value="&lt;font color=&quot;#0f0f0f&quot;&gt;7&lt;/font&gt;" style="rounded=0;whiteSpace=wrap;html=1;strokeColor=#050505;fillColor=#FFFFFF;" vertex="1" parent="1">
                    <mxGeometry x="496" y="229" width="37" height="35" as="geometry"/>
                </mxCell>
                <mxCell id="30" value="&lt;font color=&quot;#0f0f0f&quot;&gt;8&lt;/font&gt;" style="rounded=0;whiteSpace=wrap;html=1;strokeColor=#050505;fillColor=#FFFFFF;" vertex="1" parent="1">
                    <mxGeometry x="558" y="229" width="37" height="35" as="geometry"/>
                </mxCell>
                <mxCell id="31" value="&lt;font color=&quot;#0f0f0f&quot;&gt;9&lt;/font&gt;" style="rounded=0;whiteSpace=wrap;html=1;strokeColor=#050505;fillColor=#FFFFFF;" vertex="1" parent="1">
                    <mxGeometry x="620" y="229" width="37" height="35" as="geometry"/>
                </mxCell>
                <mxCell id="32" value="&lt;font color=&quot;#0f0f0f&quot;&gt;10&lt;/font&gt;" style="rounded=0;whiteSpace=wrap;html=1;strokeColor=#050505;fillColor=#FFFFFF;" vertex="1" parent="1">
                    <mxGeometry x="682" y="229" width="37" height="35" as="geometry"/>
                </mxCell>
                <mxCell id="33" value="&lt;font color=&quot;#0f0f0f&quot;&gt;1&lt;/font&gt;" style="rounded=0;whiteSpace=wrap;html=1;strokeColor=#050505;fillColor=#FFFFFF;" vertex="1" parent="1">
                    <mxGeometry x="124" y="144" width="37" height="35" as="geometry"/>
                </mxCell>
                <mxCell id="34" value="&lt;font color=&quot;#0f0f0f&quot;&gt;2&lt;/font&gt;" style="rounded=0;whiteSpace=wrap;html=1;strokeColor=#050505;fillColor=#FFFFFF;" vertex="1" parent="1">
                    <mxGeometry x="186" y="144" width="37" height="35" as="geometry"/>
                </mxCell>
                <mxCell id="35" value="&lt;font color=&quot;#0f0f0f&quot;&gt;3&lt;/font&gt;" style="rounded=0;whiteSpace=wrap;html=1;strokeColor=#050505;fillColor=#FFFFFF;" vertex="1" parent="1">
                    <mxGeometry x="248" y="144" width="37" height="35" as="geometry"/>
                </mxCell>
                <mxCell id="36" value="&lt;font color=&quot;#0f0f0f&quot;&gt;4&lt;/font&gt;" style="rounded=0;whiteSpace=wrap;html=1;strokeColor=#050505;fillColor=#FFFFFF;" vertex="1" parent="1">
                    <mxGeometry x="310" y="144" width="37" height="35" as="geometry"/>
                </mxCell>
                <mxCell id="37" value="&lt;font color=&quot;#0f0f0f&quot;&gt;1&lt;/font&gt;" style="rounded=0;whiteSpace=wrap;html=1;strokeColor=#050505;fillColor=#FFFFFF;" vertex="1" parent="1">
                    <mxGeometry x="496" y="143" width="37" height="35" as="geometry"/>
                </mxCell>
                <mxCell id="38" value="&lt;font color=&quot;#0f0f0f&quot;&gt;2&lt;/font&gt;" style="rounded=0;whiteSpace=wrap;html=1;strokeColor=#050505;fillColor=#FFFFFF;" vertex="1" parent="1">
                    <mxGeometry x="558" y="143" width="37" height="35" as="geometry"/>
                </mxCell>
                <mxCell id="39" value="&lt;font color=&quot;#0f0f0f&quot;&gt;3&lt;/font&gt;" style="rounded=0;whiteSpace=wrap;html=1;strokeColor=#050505;fillColor=#FFFFFF;" vertex="1" parent="1">
                    <mxGeometry x="620" y="143" width="37" height="35" as="geometry"/>
                </mxCell>
                <mxCell id="40" value="&lt;font color=&quot;#0f0f0f&quot;&gt;4&lt;/font&gt;" style="rounded=0;whiteSpace=wrap;html=1;strokeColor=#050505;fillColor=#FFFFFF;" vertex="1" parent="1">
                    <mxGeometry x="682" y="143" width="37" height="35" as="geometry"/>
                </mxCell>
                <mxCell id="41" value="&lt;font color=&quot;#0f0f0f&quot;&gt;1&lt;/font&gt;" style="rounded=0;whiteSpace=wrap;html=1;strokeColor=#050505;fillColor=#FFFFFF;" vertex="1" parent="1">
                    <mxGeometry x="124" y="56" width="37" height="35" as="geometry"/>
                </mxCell>
                <mxCell id="42" value="&lt;font color=&quot;#0f0f0f&quot;&gt;2&lt;/font&gt;" style="rounded=0;whiteSpace=wrap;html=1;strokeColor=#050505;fillColor=#FFFFFF;" vertex="1" parent="1">
                    <mxGeometry x="186" y="56" width="37" height="35" as="geometry"/>
                </mxCell>
                <mxCell id="43" value="&lt;font color=&quot;#0f0f0f&quot;&gt;3&lt;/font&gt;" style="rounded=0;whiteSpace=wrap;html=1;strokeColor=#050505;fillColor=#FFFFFF;" vertex="1" parent="1">
                    <mxGeometry x="248" y="56" width="37" height="35" as="geometry"/>
                </mxCell>
                <mxCell id="44" value="&lt;font color=&quot;#0f0f0f&quot;&gt;4&lt;/font&gt;" style="rounded=0;whiteSpace=wrap;html=1;strokeColor=#050505;fillColor=#FFFFFF;" vertex="1" parent="1">
                    <mxGeometry x="310" y="56" width="37" height="35" as="geometry"/>
                </mxCell>
                <mxCell id="45" value="&lt;font color=&quot;#0f0f0f&quot;&gt;5&lt;/font&gt;" style="rounded=0;whiteSpace=wrap;html=1;strokeColor=#050505;fillColor=#FFFFFF;" vertex="1" parent="1">
                    <mxGeometry x="372" y="56" width="37" height="35" as="geometry"/>
                </mxCell>
                <mxCell id="46" value="&lt;font color=&quot;#0f0f0f&quot;&gt;6&lt;/font&gt;" style="rounded=0;whiteSpace=wrap;html=1;strokeColor=#050505;fillColor=#FFFFFF;" vertex="1" parent="1">
                    <mxGeometry x="434" y="56" width="37" height="35" as="geometry"/>
                </mxCell>
                <mxCell id="47" value="&lt;font color=&quot;#0f0f0f&quot;&gt;7&lt;/font&gt;" style="rounded=0;whiteSpace=wrap;html=1;strokeColor=#050505;fillColor=#FFFFFF;" vertex="1" parent="1">
                    <mxGeometry x="496" y="56" width="37" height="35" as="geometry"/>
                </mxCell>
                <mxCell id="48" value="&lt;font color=&quot;#0f0f0f&quot;&gt;8&lt;/font&gt;" style="rounded=0;whiteSpace=wrap;html=1;strokeColor=#050505;fillColor=#FFFFFF;" vertex="1" parent="1">
                    <mxGeometry x="558" y="56" width="37" height="35" as="geometry"/>
                </mxCell>
                <mxCell id="49" value="&lt;font color=&quot;#0f0f0f&quot;&gt;9&lt;/font&gt;" style="rounded=0;whiteSpace=wrap;html=1;strokeColor=#050505;fillColor=#FFFFFF;" vertex="1" parent="1">
                    <mxGeometry x="620" y="56" width="37" height="35" as="geometry"/>
                </mxCell>
                <mxCell id="50" value="&lt;font color=&quot;#0f0f0f&quot;&gt;10&lt;/font&gt;" style="rounded=0;whiteSpace=wrap;html=1;strokeColor=#050505;fillColor=#FFFFFF;" vertex="1" parent="1">
                    <mxGeometry x="682" y="56" width="37" height="35" as="geometry"/>
                </mxCell>
                <mxCell id="51" value="&lt;font style=&quot;font-size: 19px&quot;&gt;&lt;font style=&quot;font-size: 19px&quot;&gt;Section D&lt;/font&gt;&lt;/font&gt;" style="text;html=1;align=center;verticalAlign=middle;resizable=0;points=[];autosize=1;strokeColor=none;fillColor=none;fontColor=#0F0F0F;" vertex="1" parent="1">
                    <mxGeometry x="379" y="201" width="92" height="21" as="geometry"/>
                </mxCell>
                <mxCell id="52" value="&lt;font style=&quot;font-size: 19px&quot;&gt;&lt;font style=&quot;font-size: 19px&quot;&gt;Section B&lt;/font&gt;&lt;/font&gt;" style="text;html=1;align=center;verticalAlign=middle;resizable=0;points=[];autosize=1;strokeColor=none;fillColor=none;fontColor=#0F0F0F;" vertex="1" parent="1">
                    <mxGeometry x="192" y="112" width="91" height="21" as="geometry"/>
                </mxCell>
                <mxCell id="53" value="&lt;font style=&quot;font-size: 19px&quot;&gt;&lt;font style=&quot;font-size: 19px&quot;&gt;Section C&lt;/font&gt;&lt;/font&gt;" style="text;html=1;align=center;verticalAlign=middle;resizable=0;points=[];autosize=1;strokeColor=none;fillColor=none;fontColor=#0F0F0F;" vertex="1" parent="1">
                    <mxGeometry x="565" y="112" width="92" height="21" as="geometry"/>
                </mxCell>
                <mxCell id="54" value="&lt;font style=&quot;font-size: 19px&quot;&gt;&lt;font style=&quot;font-size: 19px&quot;&gt;Section &lt;/font&gt;A&lt;/font&gt;" style="text;html=1;align=center;verticalAlign=middle;resizable=0;points=[];autosize=1;strokeColor=none;fillColor=none;fontColor=#0F0F0F;" vertex="1" parent="1">
                    <mxGeometry x="380" y="18" width="90" height="21" as="geometry"/>
                </mxCell>
                <mxCell id="55" value="&lt;span style=&quot;font-size: 19px&quot;&gt;Screen&lt;/span&gt;" style="text;html=1;align=center;verticalAlign=middle;resizable=0;points=[];autosize=1;strokeColor=none;fillColor=none;fontColor=#0F0F0F;" vertex="1" parent="1">
                    <mxGeometry x="390" y="394" width="70" height="21" as="geometry"/>
                </mxCell>
            </root>
        </mxGraphModel>
    </diagram>
</mxfile>